<?xml version="1.0" encoding="UTF-8" standalone="no"?>
<svg id="svg4136" xmlns:rdf="http://www.w3.org/1999/02/22-rdf-syntax-ns#" xmlns="http://www.w3.org/2000/svg" height="256" width="256" version="1.1" xmlns:cc="http://creativecommons.org/ns#" xmlns:dc="http://purl.org/dc/elements/1.1/" viewBox="0 0 256 256">
 <g id="layer1">
  <g stroke-linejoin="round" stroke="#000" stroke-width="28" fill="none">
   <path id="path4169" d="m128 30a98 98 0 0 1 98 98 98 98 0 0 1 -98 98 98 98 0 0 1 -93.908 -69.98"/>
   <path id="path4155" d="m141.98 59.068a28 28 0 0 1 -27.98 26.932 28 28 0 0 1 -28 -28 28 28 0 0 1 28 -28 28 28 0 0 1 2.14 0.082"/>
   <path id="path4174" d="m116.38 29.946a70 70 0 0 1 7.15 -0.366 70 70 0 0 1 70 70 70 70 0 0 1 -70 70 70 70 0 0 1 -69.999 -69.58"/>
  </g>
  <rect id="rect4684" height="20" width="20" y="24.108" x="112.41"/>
 </g>
</svg>
