<?xml version="1.0" encoding="UTF-8" standalone="no"?>
<svg id="svg4136" xmlns:rdf="http://www.w3.org/1999/02/22-rdf-syntax-ns#" xmlns="http://www.w3.org/2000/svg" height="256" width="256" version="1.1" xmlns:cc="http://creativecommons.org/ns#" xmlns:dc="http://purl.org/dc/elements/1.1/" viewBox="0 0 256 256">
 <defs id="defs4138">
  <clipPath id="clipPath4184" clipPathUnits="userSpaceOnUse">
   <rect id="rect4186" height="112" width="224" y="16" x="16"/>
  </clipPath>
  <clipPath id="clipPath4190" clipPathUnits="userSpaceOnUse">
   <rect id="rect4192" height="112" width="224" y="16" x="16"/>
  </clipPath>
 </defs>
 <g id="layer1">
  <g>
   <rect id="rect4747" height="112" width="28" y="127" x="44"/>
   <rect id="rect4156" height="28" width="224" y="212" x="16"/>
   <rect id="rect4747-1" height="56" width="28" y="183" x="184"/>
   <rect id="rect4747-1-8" height="224" width="28" y="16" x="114"/>
  </g>
  <path id="path4174" stroke-linejoin="round" d="m131.85 58.106a70 70 0 0 1 66.15 69.894 70 70 0 0 1 -66.157 69.894" clip-path="url(#clipPath4184)" transform="translate(0,56)" stroke="#000" stroke-width="28" fill="none"/>
  <path id="path4170" stroke-linejoin="round" d="m122.74 197.8a70 70 0 0 1 -64.74 -69.8 70 70 0 0 1 64.74 -69.802" clip-path="url(#clipPath4190)" stroke="#000" stroke-width="28" fill="none"/>
 </g>
</svg>
