<?xml version="1.0" encoding="UTF-8" standalone="no"?>
<svg id="svg4136" xmlns:rdf="http://www.w3.org/1999/02/22-rdf-syntax-ns#" xmlns="http://www.w3.org/2000/svg" height="256" width="256" version="1.1" xmlns:cc="http://creativecommons.org/ns#" xmlns:dc="http://purl.org/dc/elements/1.1/" viewBox="0 0 256 256">
 <g id="layer1">
  <path id="path4188" stroke-linejoin="round" d="m185.59 115.06a28 28 0 0 1 10.796 22.091 28 28 0 0 1 -28 28 28 28 0 0 1 -28 -28 28 28 0 0 1 4.056 -14.515" stroke="#000" stroke-width="28" fill="none"/>
  <path id="path4157" stroke-linejoin="round" d="m185 196.64a70 70 0 0 1 -57 29.36 70 70 0 0 1 -70 -70 70 70 0 0 1 13.437 -41.24" stroke="#000" stroke-width="28" fill="none"/>
  <rect id="rect4155" transform="rotate(-45)" height="28" width="128" y="118" x="-33"/>
  <rect id="rect4155-9" transform="matrix(-.70711 -.70711 -.70711 .70711 0 0)" height="28" width="128" y="-64" x="-215"/>
 </g>
</svg>
